<svg width="208" height="208" viewBox="0 0 208 208" fill="none" xmlns="http://www.w3.org/2000/svg">
<path d="M33.2804 178.71C32.4896 178.709 31.717 178.473 31.0602 178.033C30.4033 177.592 29.8917 176.967 29.5899 176.237C29.2882 175.506 29.2097 174.702 29.3646 173.926C29.5195 173.151 29.9009 172.439 30.4603 171.88L171.88 30.46C172.637 29.7422 173.645 29.3484 174.688 29.3627C175.731 29.3769 176.727 29.7981 177.464 30.5364C178.201 31.2746 178.62 32.2716 178.633 33.3147C178.645 34.3577 178.25 35.3644 177.53 36.12L36.1102 177.54C35.7385 177.911 35.2972 178.206 34.8116 178.407C34.326 178.607 33.8058 178.71 33.2804 178.71Z" fill="#BBDAEB"/>
<path d="M24.5206 168.68C23.9055 168.68 23.2984 168.539 22.7469 168.267C22.1954 167.994 21.7141 167.599 21.3404 167.11C7.43237 149.018 -0.0736182 126.82 0.000544331 104C0.000544331 102.939 0.42203 101.922 1.17218 101.172C1.92232 100.421 2.93968 100 4.00054 100C5.06141 100 6.07877 100.421 6.82891 101.172C7.57906 101.922 8.00054 102.939 8.00054 104C7.93633 125.058 14.8615 145.541 27.6905 162.24C28.1433 162.832 28.4217 163.539 28.4942 164.281C28.5667 165.023 28.4305 165.77 28.1009 166.439C27.7713 167.107 27.2614 167.671 26.6287 168.065C25.9961 168.459 25.266 168.669 24.5206 168.67V168.68Z" fill="#BBDAEB"/>
<path d="M164.68 28.5201C163.802 28.5208 162.948 28.2327 162.25 27.7001C145.552 14.862 125.063 7.93271 104 8.00006C102.939 8.00006 101.922 7.57862 101.172 6.82848C100.421 6.07833 100 5.06092 100 4.00006C100 2.93919 100.421 1.92177 101.172 1.17163C101.922 0.42148 102.939 5.60391e-05 104 5.60391e-05C126.82 -0.0741065 149.018 7.43203 167.11 21.3401C167.775 21.8478 168.265 22.5515 168.509 23.352C168.754 24.1525 168.741 25.0095 168.472 25.8024C168.204 26.5952 167.694 27.2839 167.013 27.7714C166.333 28.259 165.517 28.5208 164.68 28.5201Z" fill="#BBDAEB"/>
<path d="M204.001 108C202.94 108 201.922 107.578 201.172 106.828C200.422 106.078 200.001 105.061 200.001 104C200.063 82.9347 193.135 62.4441 180.301 45.7399C179.963 45.3247 179.711 44.8459 179.562 44.3318C179.412 43.8177 179.367 43.2788 179.43 42.747C179.492 42.2153 179.661 41.7015 179.926 41.2361C180.191 40.7708 180.546 40.3633 180.971 40.0379C181.396 39.7125 181.883 39.4758 182.401 39.3417C182.919 39.2077 183.459 39.1791 183.989 39.2576C184.519 39.3361 185.027 39.5202 185.484 39.7988C185.941 40.0775 186.338 40.4451 186.65 40.8799C200.558 58.9764 208.067 81.1766 208.001 104C208.001 105.061 207.579 106.078 206.829 106.828C206.079 107.578 205.061 108 204.001 108Z" fill="#BBDAEB"/>
<path d="M104 208C81.1761 208.074 58.9737 200.564 40.8804 186.65C40.4456 186.338 40.078 185.941 39.7993 185.484C39.5207 185.027 39.3366 184.518 39.2581 183.988C39.1795 183.459 39.2083 182.919 39.3423 182.4C39.4763 181.882 39.7132 181.396 40.0386 180.971C40.364 180.546 40.7715 180.19 41.2368 179.925C41.7022 179.66 42.2158 179.492 42.7476 179.429C43.2793 179.367 43.8182 179.412 44.3323 179.561C44.8464 179.711 45.3253 179.962 45.7405 180.3C62.4426 193.138 82.9346 200.067 104 200C105.061 200 106.079 200.421 106.829 201.172C107.579 201.922 108 202.939 108 204C108 205.061 107.579 206.078 106.829 206.828C106.079 207.579 105.061 208 104 208Z" fill="#BBDAEB"/>
<path d="M174.71 178.71C174.185 178.71 173.664 178.607 173.179 178.407C172.693 178.206 172.252 177.911 171.88 177.54L30.4603 36.1201C30.0729 35.7527 29.7631 35.3114 29.549 34.8224C29.3348 34.3333 29.2206 33.8063 29.2133 33.2725C29.206 32.7386 29.3055 32.2087 29.5062 31.714C29.707 31.2193 30.0048 30.7697 30.382 30.3919C30.7592 30.014 31.2081 29.7155 31.7025 29.5139C32.1969 29.3123 32.7268 29.2117 33.2606 29.2181C33.7945 29.2244 34.3215 29.3376 34.8109 29.5509C35.3004 29.7642 35.7422 30.0733 36.1102 30.4601L177.53 171.88C178.09 172.439 178.471 173.151 178.626 173.926C178.781 174.702 178.703 175.506 178.401 176.237C178.099 176.967 177.587 177.593 176.931 178.033C176.274 178.473 175.501 178.709 174.71 178.71Z" fill="#BBDAEB"/>
<path d="M43.3103 28.52C42.4733 28.5208 41.6571 28.2589 40.9768 27.7714C40.2964 27.2838 39.7861 26.5952 39.5178 25.8023C39.2495 25.0095 39.2365 24.1525 39.4809 23.352C39.7254 22.5514 40.2147 21.8478 40.8801 21.34C58.9769 7.43396 81.1777 -0.0718134 104 2.26004e-05C105.061 2.26004e-05 106.078 0.421447 106.829 1.17159C107.579 1.92174 108 2.93916 108 4.00002C108 5.06089 107.579 6.0783 106.829 6.82844C106.078 7.57859 105.061 8.00002 104 8.00002C82.9343 7.93273 62.4423 14.8619 45.7402 27.7C45.0422 28.2327 44.1883 28.5208 43.3103 28.52Z" fill="#BBDAEB"/>
<path d="M183.46 168.68C182.715 168.679 181.985 168.469 181.352 168.075C180.719 167.681 180.21 167.117 179.88 166.449C179.55 165.78 179.414 165.033 179.487 164.291C179.559 163.549 179.838 162.842 180.29 162.25C193.124 145.55 200.053 125.062 199.99 104C199.99 102.939 200.412 101.922 201.162 101.172C201.912 100.421 202.93 100 203.99 100C205.051 100 206.069 100.421 206.819 101.172C207.569 101.922 207.99 102.939 207.99 104C208.057 126.82 200.548 149.017 186.64 167.11C186.267 167.599 185.785 167.994 185.234 168.267C184.682 168.539 184.075 168.68 183.46 168.68Z" fill="#BBDAEB"/>
<path d="M104 208C102.939 208 101.922 207.579 101.172 206.828C100.421 206.078 100 205.061 100 204C100 202.939 100.421 201.922 101.172 201.172C101.922 200.421 102.939 200 104 200C125.063 200.066 145.551 193.137 162.25 180.3C162.665 179.962 163.144 179.711 163.658 179.561C164.172 179.412 164.711 179.367 165.243 179.429C165.775 179.492 166.288 179.66 166.754 179.925C167.219 180.19 167.626 180.546 167.952 180.971C168.277 181.396 168.514 181.882 168.648 182.4C168.782 182.919 168.811 183.459 168.732 183.988C168.654 184.518 168.47 185.027 168.191 185.484C167.912 185.941 167.545 186.338 167.11 186.65C149.019 200.562 126.821 208.071 104 208Z" fill="#BBDAEB"/>
<path d="M4.00049 108C2.93962 108 1.92227 107.578 1.17212 106.828C0.421975 106.078 0.000489698 105.061 0.000489698 104C-0.0698329 81.1777 7.43563 58.9774 21.3403 40.8799C21.6528 40.4451 22.0494 40.0775 22.5066 39.7988C22.9638 39.5202 23.4723 39.3361 24.002 39.2576C24.5316 39.1791 25.0715 39.2077 25.5898 39.3417C26.1082 39.4758 26.5946 39.7125 27.0198 40.0379C27.445 40.3633 27.8004 40.7708 28.0652 41.2361C28.33 41.7015 28.4987 42.2153 28.5613 42.747C28.6238 43.2788 28.579 43.8177 28.4294 44.3318C28.2799 44.8459 28.0285 45.3247 27.6904 45.7399C14.8593 62.4451 7.93411 82.9358 8.00049 104C8.00049 105.061 7.579 106.078 6.82886 106.828C6.07871 107.578 5.06136 108 4.00049 108Z" fill="#BBDAEB"/>
</svg>
