<svg width="208" height="208" viewBox="0 0 208 208" fill="none" xmlns="http://www.w3.org/2000/svg">
<path d="M33.2904 178.711C32.4988 178.711 31.7246 178.477 31.0663 178.037C30.4079 177.598 29.8949 176.973 29.5919 176.242C29.2889 175.51 29.2095 174.706 29.3641 173.929C29.5187 173.153 29.9002 172.44 30.4603 171.881L171.89 30.4606C172.258 30.0738 172.7 29.7647 173.19 29.5514C173.679 29.3381 174.206 29.2249 174.74 29.2185C175.274 29.2122 175.804 29.3128 176.298 29.5144C176.792 29.716 177.242 30.0145 177.619 30.3923C177.996 30.7702 178.294 31.2197 178.494 31.7145C178.695 32.2092 178.795 32.7391 178.787 33.273C178.78 33.8068 178.666 34.3338 178.452 34.8229C178.238 35.3119 177.928 35.7532 177.54 36.1206L36.1202 177.541C35.7485 177.912 35.3072 178.206 34.8216 178.407C34.336 178.608 33.8158 178.711 33.2904 178.711Z" fill="#666666"/>
<path d="M24.5305 168.68C23.9154 168.681 23.3084 168.539 22.7569 168.267C22.2053 167.995 21.724 167.599 21.3504 167.11C7.43876 149.02 -0.0707935 126.821 0.000503021 104C0.0322628 76.4277 10.9995 49.9934 30.4964 30.4965C49.9933 10.9996 76.4277 0.0322495 104.001 0.000489688C126.823 -0.0698329 149.023 7.43578 167.12 21.3405C167.964 21.985 168.517 22.9381 168.657 23.9902C168.798 25.0422 168.515 26.1071 167.87 26.9505C167.226 27.7939 166.273 28.3467 165.221 28.4874C164.169 28.628 163.104 28.345 162.261 27.7005C145.558 14.8624 125.066 7.9332 104.001 8.00049C78.5487 8.0296 54.1476 18.1532 36.1504 36.1504C18.1532 54.1476 8.02962 78.5486 8.0005 104C7.93537 125.06 14.8645 145.545 27.7005 162.24C28.0198 162.658 28.2538 163.134 28.3889 163.642C28.5241 164.15 28.558 164.68 28.4883 165.201C28.4186 165.722 28.2468 166.224 27.9829 166.679C27.7191 167.133 27.3683 167.532 26.9505 167.85C26.2597 168.391 25.4075 168.683 24.5305 168.68Z" fill="#666666"/>
<path d="M104 208C81.1793 208.072 58.9807 200.562 40.8901 186.65C40.4554 186.338 40.0878 185.941 39.8091 185.484C39.5304 185.027 39.3463 184.518 39.2678 183.989C39.1893 183.459 39.218 182.919 39.3521 182.401C39.4861 181.882 39.7227 181.396 40.0481 180.971C40.3735 180.546 40.781 180.19 41.2463 179.926C41.7117 179.661 42.2256 179.492 42.7573 179.43C43.2891 179.367 43.8279 179.412 44.342 179.561C44.8561 179.711 45.3351 179.962 45.7502 180.3C62.4485 193.138 82.9374 200.068 104 200C129.452 199.971 153.853 189.848 171.85 171.85C189.848 153.853 199.971 129.452 200 104C200.068 82.9344 193.138 62.4424 180.3 45.7403C179.656 44.8969 179.373 43.832 179.513 42.78C179.654 41.7279 180.207 40.7748 181.05 40.1303C181.894 39.4858 182.958 39.2028 184.01 39.3434C185.063 39.4841 186.016 40.0369 186.66 40.8803C200.565 58.9777 208.071 81.178 208 104C207.968 131.573 197.001 158.007 177.504 177.504C158.007 197.001 131.573 207.969 104 208Z" fill="#666666"/>
<path d="M61.5205 118C58.7516 118 56.0447 117.179 53.7424 115.641C51.4401 114.103 49.6458 111.916 48.5862 109.358C47.5265 106.8 47.2493 103.985 47.7895 101.269C48.3297 98.5535 49.6629 96.0589 51.6208 94.101C53.5788 92.1431 56.0733 90.8097 58.789 90.2695C61.5048 89.7293 64.3197 90.0066 66.8779 91.0662C69.4361 92.1258 71.6228 93.9202 73.1611 96.2225C74.6995 98.5248 75.5205 101.232 75.5205 104C75.5205 107.714 74.0454 111.274 71.4199 113.9C68.7944 116.526 65.2335 118 61.5205 118V118ZM61.5205 98.0005C60.3338 98.0005 59.1737 98.3524 58.187 99.0117C57.2003 99.671 56.4312 100.608 55.977 101.704C55.5229 102.801 55.4042 104.007 55.6357 105.171C55.8672 106.335 56.4387 107.404 57.2778 108.243C58.1169 109.082 59.1859 109.654 60.3498 109.885C61.5137 110.117 62.7203 109.998 63.8166 109.544C64.913 109.09 65.85 108.321 66.5093 107.334C67.1685 106.347 67.5205 105.187 67.5205 104C67.5205 102.409 66.8884 100.883 65.7632 99.7579C64.6379 98.6326 63.1118 98.0005 61.5205 98.0005V98.0005Z" fill="#666666"/>
<path d="M90.9605 102.241C90.0327 102.239 89.1343 101.915 88.4192 101.324C87.7041 100.733 87.2168 99.9114 87.0406 99.0006C86.0521 93.9211 83.5652 89.254 79.9004 85.6006C79.5137 85.2325 79.2046 84.7907 78.9913 84.3013C78.7779 83.8118 78.6648 83.2846 78.6585 82.7508C78.6521 82.2169 78.7528 81.6872 78.9544 81.1928C79.156 80.6984 79.4545 80.2494 79.8323 79.8722C80.2102 79.495 80.6596 79.1973 81.1543 78.9966C81.6491 78.7958 82.1791 78.6962 82.7129 78.7035C83.2468 78.7108 83.7737 78.8249 84.2627 79.0391C84.7518 79.2533 85.1932 79.5632 85.5606 79.9506C90.35 84.7281 93.5993 90.8301 94.8904 97.4706C95.093 98.5115 94.8741 99.5903 94.2815 100.47C93.689 101.349 92.7713 101.957 91.7305 102.161C91.4769 102.211 91.2191 102.238 90.9605 102.241V102.241Z" fill="#666666"/>
<path d="M111.01 157.5C110.219 157.501 109.445 157.267 108.786 156.827C108.128 156.388 107.615 155.763 107.312 155.031C107.009 154.3 106.929 153.495 107.084 152.719C107.238 151.943 107.62 151.23 108.18 150.67C115.257 143.629 120.635 135.067 123.906 125.636C127.178 116.204 128.257 106.151 127.06 96.2403C126.935 95.186 127.235 94.1255 127.892 93.2919C128.549 92.4583 129.511 91.9199 130.565 91.7953C131.619 91.6706 132.68 91.9699 133.514 92.6272C134.347 93.2845 134.885 94.246 135.01 95.3003C136.348 106.408 135.137 117.675 131.468 128.245C127.8 138.814 121.771 148.409 113.84 156.3C113.471 156.677 113.031 156.977 112.545 157.183C112.059 157.389 111.538 157.497 111.01 157.5V157.5Z" fill="#666666"/>
<path d="M121.39 71.7003C120.703 71.7008 120.027 71.5245 119.428 71.1882C118.829 70.8519 118.327 70.367 117.97 69.7803C115.216 65.2536 111.93 61.0737 108.18 57.3303C107.808 56.9586 107.514 56.5174 107.312 56.0318C107.111 55.5463 107.008 55.0258 107.008 54.5003C107.008 53.9747 107.111 53.4542 107.312 52.9687C107.514 52.4831 107.808 52.0419 108.18 51.6703C108.552 51.2986 108.993 51.0038 109.478 50.8027C109.964 50.6016 110.484 50.498 111.01 50.498C111.536 50.498 112.056 50.6016 112.542 50.8027C113.027 51.0038 113.468 51.2986 113.84 51.6703C118.048 55.8665 121.741 60.5496 124.84 65.6203C125.209 66.227 125.41 66.9211 125.423 67.6313C125.435 68.3416 125.258 69.0422 124.91 69.6613C124.561 70.2804 124.054 70.7956 123.441 71.1539C122.828 71.5123 122.13 71.7009 121.42 71.7003H121.39Z" fill="#666666"/>
<path d="M125.2 171.64C124.409 171.641 123.635 171.407 122.976 170.967C122.318 170.528 121.805 169.903 121.502 169.171C121.199 168.44 121.12 167.635 121.274 166.859C121.429 166.083 121.81 165.37 122.37 164.81C133.262 153.911 141.028 140.287 144.86 125.363C148.691 110.438 148.446 94.7582 144.15 79.9603C143.886 78.9517 144.026 77.8799 144.541 76.9731C145.055 76.0663 145.903 75.3962 146.904 75.1054C147.906 74.8147 148.981 74.9264 149.901 75.4167C150.821 75.907 151.513 76.7371 151.83 77.7303C156.527 93.9044 156.795 111.043 152.607 127.356C148.419 143.669 139.928 158.559 128.02 170.47C127.272 171.218 126.258 171.638 125.2 171.64V171.64Z" fill="#666666"/>
<path d="M135.91 57.3107C135.258 57.3112 134.615 57.1519 134.038 56.8469C133.461 56.5418 132.967 56.1003 132.6 55.5607C129.566 51.1447 126.128 47.0203 122.33 43.2407C121.943 42.8733 121.633 42.4321 121.419 41.943C121.205 41.4539 121.091 40.9269 121.083 40.3931C121.076 39.8592 121.176 39.3293 121.376 38.8346C121.577 38.3399 121.875 37.8903 122.252 37.5125C122.629 37.1346 123.078 36.8361 123.573 36.6345C124.067 36.4329 124.597 36.3323 125.131 36.3387C125.664 36.345 126.192 36.4582 126.681 36.6715C127.17 36.8848 127.612 37.1939 127.98 37.5807C132.127 41.7158 135.883 46.2249 139.2 51.0507C139.612 51.6515 139.851 52.3532 139.893 53.0802C139.935 53.8072 139.778 54.5318 139.438 55.176C139.099 55.8202 138.59 56.3594 137.966 56.7356C137.343 57.1118 136.628 57.3106 135.9 57.3107H135.91Z" fill="#666666"/>
<path d="M96.8703 143.351C96.0787 143.351 95.3048 143.117 94.6464 142.677C93.988 142.238 93.4748 141.613 93.1718 140.882C92.8688 140.15 92.7896 139.346 92.9442 138.569C93.0988 137.793 93.4804 137.08 94.0404 136.521C99.7399 130.832 103.844 123.745 105.94 115.971C106.076 115.463 106.311 114.987 106.631 114.57C106.95 114.153 107.349 113.804 107.804 113.541C108.259 113.278 108.761 113.107 109.282 113.039C109.803 112.97 110.333 113.005 110.84 113.141C111.348 113.276 111.824 113.511 112.241 113.831C112.658 114.151 113.007 114.549 113.27 115.004C113.533 115.459 113.703 115.962 113.772 116.483C113.841 117.004 113.806 117.533 113.67 118.041C111.204 127.177 106.375 135.502 99.6703 142.181C98.9269 142.923 97.9211 143.344 96.8703 143.351V143.351Z" fill="#666666"/>
<path d="M106.74 86.6404C105.982 86.6411 105.239 86.4263 104.598 86.0208C103.957 85.6154 103.445 85.036 103.12 84.3504C100.862 79.5639 97.7899 75.2058 94.0405 71.4704C93.29 70.7198 92.8682 69.7019 92.8682 68.6404C92.8682 67.5789 93.29 66.561 94.0405 65.8104C94.7911 65.0598 95.8089 64.6382 96.8704 64.6382C97.9318 64.6382 98.9499 65.0598 99.7004 65.8104C104.097 70.1997 107.703 75.3147 110.36 80.9304C110.812 81.8893 110.864 82.9881 110.506 83.9855C110.148 84.983 109.409 85.7976 108.45 86.2504C107.916 86.5034 107.332 86.6365 106.74 86.6404V86.6404Z" fill="#666666"/>
</svg>
